<svg id="Layer_1" data-name="Layer 1" xmlns="http://www.w3.org/2000/svg" viewBox="0 0 1049.16676 311.37611">
  <defs>
    <style>
      .svg-cls-1,
      .svg-cls-2,
      .svg-cls-3 {
        fill: none;
      }
      .svg-cls-1,
      .svg-cls-2,
      .svg-cls-3,
      .svg-cls-4,
      .svg-cls-5 {
        stroke: #000;
        stroke-miterlimit: 10;
      }
      .svg-cls-1 {
        stroke-width: 5px;
      }
      .svg-cls-2 {
        stroke-width: 3px;
      }
      .svg-cls-3 {
        stroke-width: 1px;
      }
      .svg-cls-4 {
        fill: #878c8f;
        stroke-width: 1px;
      }
      .svg-cls-5 {
        stroke-width: 8px;
      }
    </style>
  </defs>
  <path
    class="svg-cls-1"
    d="M415.62267,467.49857C430.92821,477.41069,444.5,484.5,453.5,514.5c9.5515,31.83832,4.02607,66.67013,1,72,2.77422-.09056,72.48129,3,160,3,82,0,231.54567,4.36217,317,2,0,0-7-31.875-7-50a91.00408,91.00408,0,0,1,95.45111-90.89382c49.7837,2.37168,88.54889,44.246,88.54889,94.08618V573.5c0,3,4.57591,2.704,7.5,1.5,8.5-3.5,15.74818-7.16962,22.5-12.5,19-15,25.5-30.5,34.5-48.5,4-9,13-7,21-9,5-1,2-9,2-14,1-11-10.5-29.5-10-35,.85411-9.39524,5-18,5-27,0-2-1-5-3-6-16-10-31-18-48-24-9-3-19.5-4.5-28.5-5.5-36-4-70.5-4.5-106.5-6.5-63-14-122.5-26.5-187.5-38.5-14-3-41-7-41.54-5.5-.23013.63925-1.96,7-.96,11,1,3,5.51683,3.18264,8.5,3.5,47,5,57.16313,15.86508,56.5,16.5-9.0691,8.68319-25.93005,15.92909-49.5,24.5-11,4-85,12-114,15-15.75275,1.6296-122.16436,9-138,9-1,0,1,2-1.5,3.5-4.88846,2.93308-23.5-.5-34.28,0-.22.5,1.28-9,5.28-11,8-4,11.5-10.5,18.5-18.5,6-3,10.5-5.5,16.5-8.5,9-5,19-3,28-6,15-7,23.5-11.5,38.5-18.5,11-4,31-9,41-12-1.84428-9.22142-30.47448-10.36455-47.02859-3.4294A1.00164,1.00164,0,0,0,603.84764,350l6.80725-1c1.06586,0,1.46194,1.65546.42667,1.909C600.5,353.5,569.5,366.5,565.5,368.5s-62,34-90.5,48.5c-11.58661,5.89494-25.94636,1.51628-38.5,2.5l-30-1c-28.3461-.39253-74,6-77.5,6.5-18.25377,2.60768-34,6-51,13-27,10-51,24-77,40-15,9-29,20-43,31,2,2,0,6,3,7,5,0,10-4,15-5,.17333.86667-2.27967.75989,0,0,2,14,6.5,30.5,8.5,44.5-6,3-12,7-18,10-4,3-3,7,0,8,16,8,54.5063,8.3056,57.5,8.5,38.5,2.5,42.01543,2.30585,64.5,2.5-2,0-8.21254-59.14277,6.09055-84.56948,13.62779-24.22623,38.14991-41.56178,65.91446-44.84364a85.45985,85.45985,0,0,1,55.11766,12.41169"
    transform="translate(-157.24793 -317.12389)"
  />
  <polyline class="svg-cls-1" points="409.564 65.937 408.752 99.876 393.714 105.327" />
  <line class="svg-cls-1" x1="621.70462" y1="39.74544" x2="615.02074" y2="84.74959" />
  <path
    class="svg-cls-1"
    d="M1127.57694,395.84s5.5959-7.57324,8.92306-9.34c7.12062-3.78112,33-6,33-6s9.51841,3.74352,12,6c1.745,1.58668,4.10538,5.76642,4,8-.02972.62987-6,13-6,13l-20-6-3.06687,4.16221"
    transform="translate(-157.24793 -317.12389)"
  />
  <polyline class="svg-cls-1" points="1002.252 84.376 1010.252 72.376 1026.252 81.376" />
  <polyline class="svg-cls-1" points="509.752 53.876 416.752 96.876 416.752 104.913" />
  <polyline class="svg-cls-1" points="508.752 53.876 496.752 42.876 508.752 38.276 502.752 30.116 482.223 27.472" />
  <path
    class="svg-cls-1"
    d="M187.5414,507.99242a.99491.99491,0,0,1,.50793-1.40826c5.01953-1.95759,26.579-9.99863,32.45067-6.08416,12,8,26.78464,43.56928,32,54,1,2-18.5,5.5-18.5,5.5s-14.86153,2.45771-17.5-1.5C209.25239,547.62859,190.92469,514.18661,187.5414,507.99242Z"
    transform="translate(-157.24793 -317.12389)"
  />
  <path
    class="svg-cls-1"
    d="M697.00144,430.6608s22.193-2.31371,29.49856-2.1608c17.99779.37671,47.89187,7.33319,64,9,5.76791.59684,16,1,23,4,11.68473,5.00774,44,27,44,27l20.41848,16.93468a8.00147,8.00147,0,0,1-.24255,11.9804C870.28274,503.7052,858.83118,513.0768,853.5,515.5c-5.7126,2.59657-22.39927,2.669-22.39927,2.669a1,1,0,0,1-.88108-1.64793l16.9051-19.45393a2,2,0,0,0-.24774-2.876L817.5,470.5s-25-17-38-21c-20.13276-6.1947-82.55056-16.87142-82.55056-16.87142A1,1,0,0,1,697.00144,430.6608Z"
    transform="translate(-157.24793 -317.12389)"
  />
  <path
    class="svg-cls-1"
    d="M1157.5,411.5c-8.38807-1.76986-26,0-35,3-3.35691,1.119-10.99709,6.72041-14.12552,8.64625a.99864.99864,0,0,0,.00307,1.70148S1118.447,430.28036,1121.5,431.5c13.20336,5.27462,51.58414,14.6168,63.69884,17.12211a1.99828,1.99828,0,0,0,2.14109-2.94378l-7.412-8.60151a2,2,0,0,1-.216-2.30718l4.19111-7.2436a3,3,0,0,0-1.26109-4.18873S1164.63045,413.00451,1157.5,411.5Z"
    transform="translate(-157.24793 -317.12389)"
  />
  <path class="svg-cls-1" d="M201,478l125.98641-41.34689a1,1,0,0,0-.1023-1.92794L302.5,429.5" transform="translate(-157.24793 -317.12389)" />
  <path class="svg-cls-2" d="M486,541s64.12156,4.43516,88.5,4.5C651.61531,545.7051,890,521,890,521" transform="translate(-157.24793 -317.12389)" />
  <line class="svg-cls-2" x1="633.75207" y1="255.87611" x2="308.75207" y2="265.87611" />
  <path
    class="svg-cls-2"
    d="M1196.5,503.5v24a1.16489,1.16489,0,0,0,1,1h8c.71292.06749.623.69824.28281,1.32837,0,0-8.73084,15.11221-10.28281,20.67163-.40606,1.45457-.5327,5.56394-1,7-.78143,2.40143-4.604,7.06844-6.66946,9.47834a6.96914,6.96914,0,0,1-3.20389,2.11189S1170.73934,572.16432,1166.5,573.5c-3.82157,1.20406-13.38031,5.18973-15.88912,6.2429a2.97079,2.97079,0,0,1-1.28246.22852l-45.33533-1.92916a1,1,0,0,1-.95682-1.03559l2.09645-57.40954"
    transform="translate(-157.24793 -317.12389)"
  />
  <line class="svg-cls-3" x1="283.55207" y1="150.37611" x2="602.75207" y2="131.87611" />
  <polygon class="svg-cls-3" points="852.22 201.405 833.148 226.786 851.709 251.795 882.252 241.871 882.568 210.728 852.22 201.405" />
  <circle class="svg-cls-1" cx="859.25207" cy="228.37611" r="82.5" />
  <ellipse class="svg-cls-2" cx="860.25207" cy="227.37611" rx="65" ry="67" />
  <circle class="svg-cls-3" cx="860.75207" cy="226.87611" r="7.5" />
  <path
    class="svg-cls-4"
    d="M1014.09811,534.72493l-13.1564-25.37306a5.89562,5.89562,0,0,1-.59048-1.79984l-3.01742-19.22736c-1.83381-7.82467,1.32965-1.69349,1.86607-.6645l8.96267,17.19252a5.12164,5.12164,0,0,1,.48061,1.36313l5.68562,28.42807A.12346.12346,0,0,1,1014.09811,534.72493Z"
    transform="translate(-157.24793 -317.12389)"
  />
  <path
    class="svg-cls-4"
    d="M1025.4817,537.64976l20.06567-20.35319a5.89573,5.89573,0,0,1,1.52928-1.11776l17.35387-8.81132c6.875-4.162,2.02149.74126,1.20863,1.5694l-13.58144,13.83678a5.12154,5.12154,0,0,1-1.1479.87833l-25.27975,14.19209A.12346.12346,0,0,1,1025.4817,537.64976Z"
    transform="translate(-157.24793 -317.12389)"
  />
  <path
    class="svg-cls-4"
    d="M1025.72615,551.37622l25.55767,12.7941a5.89572,5.89572,0,0,1,1.53562,1.109l13.74271,13.78166c6.0828,5.25241-.08031,2.15161-1.11911,1.63445l-17.35646-8.64092a5.122,5.122,0,0,1-1.19-.8203l-21.30936-19.65688A.12346.12346,0,0,1,1025.72615,551.37622Z"
    transform="translate(-157.24793 -317.12389)"
  />
  <path
    class="svg-cls-4"
    d="M1014.55249,553.74994l-4.27016,28.26038a5.89551,5.89551,0,0,1-.58021,1.80317l-8.86041,17.32887c-3.11564,7.40817-2.07112.58851-1.90027-.55927l2.85456-19.17716a5.1216,5.1216,0,0,1,.4124-1.38529l12.10984-26.34072A.12346.12346,0,0,1,1014.55249,553.74994Z"
    transform="translate(-157.24793 -317.12389)"
  />
  <path
    class="svg-cls-4"
    d="M1008.53617,544.135l-28.19677,4.67178a5.896,5.896,0,0,1-1.89422.0054l-19.21874-3.07184c-8.00838-.6739-1.19972-1.78789-.05533-1.98009l19.12067-3.21122a5.12162,5.12162,0,0,1,1.44494-.03586l28.79365,3.37741A.12346.12346,0,0,1,1008.53617,544.135Z"
    transform="translate(-157.24793 -317.12389)"
  />
  <line class="svg-cls-3" x1="888.29944" y1="200.17267" x2="889.50462" y2="174.59611" />
  <line class="svg-cls-3" x1="891.70943" y1="207.62421" x2="918.25207" y2="212.37611" />
  <line class="svg-cls-3" x1="892.59696" y1="246.32611" x2="918.25207" y2="240.37611" />
  <line class="svg-cls-3" x1="888.42891" y1="252.98524" x2="891.25207" y2="278.37611" />
  <line class="svg-cls-3" x1="852.73501" y1="266.03547" x2="866.25207" y2="287.37611" />
  <line class="svg-cls-3" x1="844.96047" y1="262.89674" x2="821.25207" y2="273.37611" />
  <line class="svg-cls-3" x1="821.19725" y1="231.68829" x2="806.25207" y2="250.37611" />
  <line class="svg-cls-3" x1="804.25207" y1="204.37611" x2="821.93207" y2="223.35441" />
  <line class="svg-cls-3" x1="843.33133" y1="191.36683" x2="820.25207" y2="182.37611" />
  <line class="svg-cls-3" x1="851.39523" y1="189.09192" x2="863.24207" y2="167.28047" />
  <polygon class="svg-cls-3" points="199.524 208.188 192.493 236.549 217.212 251.062 239.519 231.671 228.587 205.173 199.524 208.188" />
  <circle class="svg-cls-1" cx="215.18063" cy="228.50937" r="75.93" />
  <ellipse class="svg-cls-2" cx="372.91614" cy="544.42645" rx="59.82364" ry="61.66436" transform="translate(-340.32727 -128.13469) rotate(-23)" />
  <circle class="svg-cls-3" cx="215.912" cy="226.69915" r="6.90273" />
  <path
    class="svg-cls-4"
    d="M366.51881,537.36839l-20.27063-16.7648a5.42632,5.42632,0,0,1-1.1475-1.31248l-9.4708-15.20429c-4.36746-5.96959.51748-1.91289,1.342-1.234l13.77584,11.34239a4.71354,4.71354,0,0,1,.89738.982l15.04,22.03961A.11363.11363,0,0,1,366.51881,537.36839Z"
    transform="translate(-157.24793 -317.12389)"
  />
  <path
    class="svg-cls-4"
    d="M377.21479,535.7526l9.68031-24.45912a5.42622,5.42622,0,0,1,.89364-1.49691l11.53351-13.70566c4.32779-5.99841,1.97917-.099,1.58832.895l-6.53027,16.6066a4.7137,4.7137,0,0,1-.65664,1.15691l-16.3133,21.11451A.11363.11363,0,0,1,377.21479,535.7526Z"
    transform="translate(-157.24793 -317.12389)"
  />
  <path
    class="svg-cls-4"
    d="M382.35812,547.29374,408.6115,548.942a5.42626,5.42626,0,0,1,1.6998.38733l16.5989,6.73373c7.04219,2.26237.70572,1.85173-.36033,1.78715l-17.81178-1.07894a4.71379,4.71379,0,0,1-1.30321-.267l-25.12217-8.99012A.11363.11363,0,0,1,382.35812,547.29374Z"
    transform="translate(-157.24793 -317.12389)"
  />
  <path
    class="svg-cls-4"
    d="M373.74542,553.323l6.54518,25.47779a5.4261,5.4261,0,0,1,.15689,1.7363l-1.27481,17.86733c.02451,7.39663-1.543,1.24339-1.811.20956l-4.478-17.27342a4.71374,4.71374,0,0,1-.14879-1.32193l.78694-26.67071A.11363.11363,0,0,1,373.74542,553.323Z"
    transform="translate(-157.24793 -317.12389)"
  />
  <path
    class="svg-cls-4"
    d="M365.19073,547.34076l-22.20824,14.0979a5.42606,5.42606,0,0,1-1.60283.68576l-17.38678,4.30889c-7.027,2.309-1.65936-1.08327-.759-1.65763l15.04422-9.59662a4.714,4.714,0,0,1,1.21125-.55l25.60853-7.49328A.11363.11363,0,0,1,365.19073,547.34076Z"
    transform="translate(-157.24793 -317.12389)"
  />
  <line class="svg-cls-3" x1="229.64717" y1="194.16959" x2="221.47048" y2="172.06774" />
  <line class="svg-cls-3" x1="235.21579" y1="199.25624" x2="259.41154" y2="193.73692" />
  <line class="svg-cls-3" x1="249.88548" y1="231.72528" x2="269.48076" y2="217.4585" />
  <line class="svg-cls-3" x1="248.74903" y1="238.86579" x2="260.27174" y2="259.36166" />
  <line class="svg-cls-3" x1="223.20224" y1="262.75799" x2="242.32829" y2="275.97682" />
  <line class="svg-cls-3" x1="215.48692" y1="262.8947" x2="199.16972" y2="280.2987" />
  <line class="svg-cls-3" x1="184.13173" y1="245.00053" x2="178.19059" y2="266.20734" />
  <line class="svg-cls-3" x1="159.95392" y1="227.9554" x2="181.75728" y2="237.67582" />
  <line class="svg-cls-3" x1="188.38351" y1="202.88048" x2="165.59758" y2="203.56318" />
  <line class="svg-cls-3" x1="194.39715" y1="198.05328" x2="196.59006" y2="175.31434" />
  <path class="svg-cls-3" d="M1186,456l-13.63309-6.66579a1,1,0,0,0-1.43815.85154L1170,470l-5,26,31.65514,1.12315" transform="translate(-157.24793 -317.12389)" />
  <path class="svg-cls-3" d="M1036.00163,388.4829C1033,388,933.61177,397.34525,899.5,401.5,870.63251,405.016,784,418,784,418" transform="translate(-157.24793 -317.12389)" />
  <circle cx="545.25207" cy="45.37611" r="19.5" />
  <path
    d="M676.5,413.5s3.52834-1.94332,1-7c-3-6-32.01271,4.31639-33,3-6-8,28.23271-14.74424,38-18,6-2,20-11,20-11a9.32929,9.32929,0,0,0,5.62922,1.0881C726.5,379.5,739.682,344.77143,740.5,338.5c3-23,17-31,11-6-2.59183,10.79927-19,44-21,56a141.983,141.983,0,0,0-2,19Z"
    transform="translate(-157.24793 -317.12389)"
  />
  <line class="svg-cls-5" x1="485.44772" y1="98.81006" x2="477.69369" y2="76.75348" />
</svg>
